<?xml version="1.0" encoding="UTF-8" standalone="no"?><svg width="122" height="122" viewBox="0 0 122 122" fill="none" xmlns="http://www.w3.org/2000/svg">
<circle cx="61" cy="61" r="61" fill="#C80128"/>
<path d="M48.5332 78.131V51.3121" stroke="white" stroke-width="3" stroke-linecap="round" stroke-linejoin="round"/>
<path d="M40 73.4434C40 74.6519 40.48 75.8109 41.3343 76.6654C42.1886 77.5199 43.3473 78 44.5556 78H78.7222C79.3263 78 79.9057 77.76 80.3329 77.3327C80.76 76.9054 81 76.3259 81 75.7217V52.9387C81 52.3344 80.76 51.7549 80.3329 51.3277C79.9057 50.9004 79.3263 50.6604 78.7222 50.6604H73.7111L69.1556 55.217M40 73.4434C40 72.2349 40.48 71.0759 41.3343 70.2214C42.1886 69.3669 43.3473 68.8868 44.5556 68.8868H49.1111M40 73.4434V48.3821C40 47.1736 40.48 46.0146 41.3343 45.1601C42.1886 44.3055 43.3473 43.8255 44.5556 43.8255H49.1111V68.8868M49.1111 68.8868V50.6604H62.7778V55.217M62.7778 55.217H69.1556M62.7778 55.217V48.8377L73.9617 37.6513C74.3874 37.2338 74.9599 37 75.5561 37C76.1523 37 76.7248 37.2338 77.1506 37.6513L80.3394 40.8409C80.7568 41.2668 80.9906 41.8394 80.9906 42.4357C80.9906 43.0321 80.7568 43.6046 80.3394 44.0305L69.1556 55.217" stroke="white" stroke-width="3" stroke-linecap="round" stroke-linejoin="round"/>
</svg>
