<?xml version="1.0" encoding="UTF-8" standalone="no"?><svg width="171" height="45" viewBox="0 0 171 45" fill="none" xmlns="http://www.w3.org/2000/svg">
<path d="M163.085 26.9713C160.824 26.9713 158.865 26.5809 157.207 25.8001C155.574 24.9941 154.317 23.8607 153.438 22.3998C152.559 20.9389 152.119 19.2136 152.119 17.2238C152.119 15.3095 152.534 13.6345 153.363 12.1988C154.217 10.738 155.373 9.60454 156.83 8.79854C158.312 7.96735 159.995 7.55176 161.88 7.55176C163.764 7.55176 165.384 7.94216 166.741 8.72297C168.098 9.50379 169.14 10.6246 169.869 12.0855C170.622 13.5212 170.999 15.2088 170.999 17.1482V18.6217H157.734V15.448H166.1L165.497 15.9392C165.497 14.5791 165.208 13.5716 164.631 12.9167C164.053 12.2366 163.236 11.8966 162.181 11.8966C161.402 11.8966 160.724 12.0855 160.146 12.4633C159.593 12.8159 159.166 13.3449 158.865 14.0501C158.563 14.7554 158.413 15.6369 158.413 16.6948V17.0349C158.413 18.2187 158.576 19.1758 158.902 19.9062C159.254 20.6367 159.794 21.1782 160.523 21.5308C161.251 21.8583 162.168 22.022 163.274 22.022C164.229 22.022 165.221 21.8834 166.251 21.6064C167.306 21.3041 168.236 20.8759 169.04 20.3218L170.698 24.7422C169.743 25.4223 168.575 25.9638 167.193 26.3668C165.811 26.7698 164.442 26.9713 163.085 26.9713Z" fill="black"/>
<path d="M147.278 26.9716C144.815 26.9716 143.029 26.3312 141.918 25.0504C140.807 23.7446 140.252 21.7857 140.252 19.174V0H146.698V18.9479C146.698 19.5004 146.771 19.9776 146.916 20.3794C147.085 20.7812 147.338 21.0826 147.676 21.2835C148.038 21.4844 148.485 21.5848 149.016 21.5848C149.258 21.5848 149.499 21.5723 149.741 21.5472C150.006 21.522 150.26 21.4844 150.501 21.4341L150.429 26.5572C149.946 26.7079 149.439 26.8084 148.908 26.8586C148.401 26.9339 147.857 26.9716 147.278 26.9716Z" fill="black"/>
<path d="M120.926 32.9052L125.289 23.7108V26.3694L117.057 8.09131H124.151L128.855 19.9813H127.565L132.497 8.09131H139.173L127.755 32.9052H120.926Z" fill="black"/>
<path d="M113.41 26.9717C110.668 26.9717 108.637 26.3204 107.315 25.0177C105.993 23.7151 105.332 21.7486 105.332 19.1182V12.9932H101.953V8.07071H105.332V2.69727H111.868V8.07071H117.009V12.9932H111.868V18.8928C111.868 19.8196 112.076 20.5085 112.492 20.9595C112.933 21.3853 113.618 21.5983 114.549 21.5983C114.843 21.5983 115.161 21.5607 115.504 21.4855C115.871 21.4104 116.275 21.3227 116.715 21.2225L117.597 26.0323C117.034 26.3329 116.373 26.5584 115.614 26.7087C114.879 26.884 114.145 26.9717 113.41 26.9717Z" fill="black"/>
<path d="M92.7065 26.9713C91.5558 26.9713 90.4433 26.8958 89.3693 26.7446C88.3208 26.5935 87.3618 26.3668 86.4923 26.0646C85.6228 25.7623 84.8428 25.3971 84.1523 24.9689L85.7251 20.6241C86.3644 20.9767 87.0677 21.2915 87.8349 21.5686C88.6276 21.8457 89.446 22.0598 90.2899 22.2109C91.1338 22.362 91.9521 22.4376 92.7449 22.4376C93.6911 22.4376 94.3688 22.3116 94.778 22.0598C95.1871 21.7827 95.3917 21.4301 95.3917 21.0019C95.3917 20.6241 95.2511 20.3344 94.9698 20.1329C94.714 19.9314 94.3432 19.7929 93.8573 19.7173L89.5994 19.0373C88.0139 18.7602 86.7864 18.1935 85.9169 17.3371C85.0474 16.4555 84.6127 15.3095 84.6127 13.899C84.6127 12.5893 84.9835 11.4684 85.7251 10.5365C86.4923 9.57935 87.528 8.84891 88.8322 8.34516C90.162 7.81623 91.6836 7.55176 93.397 7.55176C94.3176 7.55176 95.2255 7.62732 96.1205 7.77845C97.0156 7.90438 97.8723 8.11847 98.6906 8.42072C99.509 8.69779 100.251 9.0756 100.915 9.55416L99.2277 13.8234C98.7418 13.4708 98.1664 13.1686 97.5015 12.9167C96.8366 12.6648 96.1461 12.4633 95.4301 12.3122C94.7396 12.1359 94.1003 12.0477 93.5121 12.0477C92.4636 12.0477 91.722 12.1863 91.2872 12.4633C90.8525 12.7404 90.6351 13.093 90.6351 13.5212C90.6351 13.8486 90.7502 14.1257 90.9804 14.3524C91.2105 14.5539 91.5685 14.6924 92.0544 14.768L96.3123 15.4858C97.949 15.7377 99.2021 16.2918 100.072 17.1482C100.967 17.9794 101.414 19.1128 101.414 20.5485C101.414 21.9086 101.056 23.0673 100.34 24.0244C99.6241 24.9815 98.6139 25.7119 97.3097 26.2157C96.0055 26.7194 94.4711 26.9713 92.7065 26.9713Z" fill="black"/>
<path d="M79.282 26.9717C76.4456 26.9717 74.3435 26.3204 72.976 25.0177C71.6084 23.7151 70.9246 21.7486 70.9246 19.1182V12.9932H67.4297V8.07071H70.9246V2.69727H77.6865V8.07071H83.0048V12.9932H77.6865V18.8928C77.6865 19.8196 77.9018 20.5085 78.3323 20.9595C78.7882 21.3853 79.4973 21.5983 80.4596 21.5983C80.7635 21.5983 81.0928 21.5607 81.4473 21.4855C81.8272 21.4104 82.2451 21.3227 82.7009 21.2225L83.6127 26.0323C83.0302 26.3329 82.3464 26.5584 81.5613 26.7087C80.8015 26.884 80.0418 26.9717 79.282 26.9717Z" fill="black"/>
<path d="M46.9316 26.4322V0H53.5864V11.2102H52.9882C53.5864 10.0355 54.4338 9.13566 55.5305 8.51079C56.6521 7.88591 57.9232 7.57348 59.3439 7.57348C60.8145 7.57348 62.0233 7.86092 62.9704 8.4358C63.9175 8.98569 64.6279 9.86051 65.1014 11.0603C65.575 12.235 65.8118 13.7222 65.8118 15.5219V26.4322H59.157V15.7843C59.157 15.0345 59.0698 14.4346 58.8953 13.9847C58.7208 13.5098 58.4591 13.1723 58.1102 12.9724C57.7862 12.7724 57.3749 12.6725 56.8764 12.6725C56.2035 12.6725 55.6177 12.8224 55.1193 13.1224C54.6208 13.3973 54.2344 13.7972 53.9603 14.3221C53.711 14.847 53.5864 15.4719 53.5864 16.1967V26.4322H46.9316Z" fill="black"/>
<path d="M32.6986 33.4445C30.8431 33.4445 29.1004 33.2704 27.4706 32.9222C25.8658 32.574 24.4867 32.0019 23.3333 31.2059L25.0634 26.7288C25.7153 27.1019 26.4425 27.4252 27.2449 27.6989C28.0723 27.9973 28.8998 28.2087 29.7273 28.3331C30.5547 28.4823 31.332 28.557 32.0592 28.557C33.5887 28.557 34.7296 28.2336 35.4819 27.5869C36.2592 26.9651 36.6478 25.9826 36.6478 24.6395V22.289H36.9487C36.5726 23.3336 35.8078 24.1918 34.6544 24.8633C33.501 25.51 32.2473 25.8334 30.8932 25.8334C29.2383 25.8334 27.7965 25.4603 26.5679 24.7141C25.3392 23.943 24.3739 22.8735 23.6718 21.5055C22.9948 20.1375 22.6562 18.5332 22.6562 16.6926C22.6562 14.852 22.9948 13.2477 23.6718 11.8797C24.3739 10.5116 25.3392 9.45454 26.5679 8.70835C27.7965 7.93729 29.2383 7.55176 30.8932 7.55176C32.2974 7.55176 33.5511 7.8751 34.6544 8.5218C35.7828 9.1685 36.535 10.0142 36.9111 11.0588H36.6102V7.96216H43.1547V23.856C43.1547 25.9951 42.7535 27.7735 41.9511 29.1912C41.1487 30.609 39.9702 31.6661 38.4156 32.3625C36.861 33.0838 34.9553 33.4445 32.6986 33.4445ZM32.9619 20.9458C34.0652 20.9458 34.9428 20.5727 35.5947 19.8266C36.2466 19.0804 36.5726 18.0357 36.5726 16.6926C36.5726 15.3494 36.2466 14.3048 35.5947 13.5586C34.9428 12.8124 34.0652 12.4393 32.9619 12.4393C31.8837 12.4393 31.0186 12.8124 30.3667 13.5586C29.7147 14.3048 29.3888 15.3494 29.3888 16.6926C29.3888 18.0357 29.7147 19.0804 30.3667 19.8266C31.0186 20.5727 31.8837 20.9458 32.9619 20.9458Z" fill="black"/>
<path d="M12.9473 26.432V8.09131H19.4205V26.432H12.9473Z" fill="black"/>
<path d="M12.9473 0V4.85489H19.4205V0H12.9473Z" fill="#C80128"/>
<path d="M7.39575 26.9716C4.80343 26.9716 2.92272 26.3312 1.75363 25.0504C0.584544 23.7446 0 21.7857 0 19.174V0H6.78579V18.9479C6.78579 19.5004 6.86204 19.9776 7.01453 20.3794C7.19243 20.7812 7.45929 21.0826 7.8151 21.2835C8.19632 21.4844 8.6665 21.5848 9.22563 21.5848C9.47978 21.5848 9.73392 21.5723 9.98807 21.5472C10.2676 21.522 10.5345 21.4844 10.7886 21.4341L10.7124 26.5572C10.2041 26.7079 9.67039 26.8084 9.11126 26.8586C8.57755 26.9339 8.00571 26.9716 7.39575 26.9716Z" fill="black"/>
<path d="M108.697 34.3916V33.1455H110.024V34.3916H108.697ZM108.859 44.3118V36.463H109.846V44.3118H108.859Z" fill="black"/>
<path d="M91.9531 44.3118V36.463H92.9241V38.2917H92.7461C92.8756 37.8709 93.0644 37.5149 93.3125 37.2236C93.5714 36.9323 93.8789 36.7112 94.2349 36.5601C94.591 36.3983 94.9793 36.3174 95.4001 36.3174C96.0906 36.3174 96.6408 36.4846 97.0508 36.8191C97.4715 37.1535 97.7466 37.6552 97.8761 38.3241H97.6333C97.8168 37.7199 98.1566 37.2344 98.6529 36.8676C99.1599 36.5008 99.7533 36.3174 100.433 36.3174C101.016 36.3174 101.496 36.4307 101.873 36.6572C102.262 36.8838 102.553 37.2236 102.747 37.6768C102.941 38.1191 103.038 38.6801 103.038 39.3598V44.3118H102.051V39.4407C102.051 38.6531 101.911 38.0813 101.631 37.7253C101.361 37.3585 100.902 37.1751 100.255 37.1751C99.8019 37.1751 99.4027 37.283 99.0574 37.4987C98.7122 37.7145 98.4479 38.022 98.2645 38.4212C98.0811 38.8203 97.9894 39.295 97.9894 39.8453V44.3118H97.0022V39.4407C97.0022 38.6531 96.862 38.0813 96.5815 37.7253C96.3117 37.3585 95.8586 37.1751 95.2221 37.1751C94.7582 37.1751 94.3536 37.283 94.0084 37.4987C93.6739 37.7145 93.4096 38.022 93.2154 38.4212C93.032 38.8203 92.9403 39.295 92.9403 39.8453V44.3118H91.9531Z" fill="black"/>
<path d="M82.656 44.4412C82.1273 44.4412 81.6526 44.3387 81.2319 44.1338C80.8219 43.9288 80.4928 43.6483 80.2447 43.2922C80.0073 42.9362 79.8887 42.537 79.8887 42.0947C79.8887 41.5121 80.0343 41.0536 80.3256 40.7191C80.6169 40.3847 81.1078 40.1527 81.7983 40.0233C82.4887 39.883 83.4381 39.8129 84.6465 39.8129H85.3423V40.5411H84.6626C83.9398 40.5411 83.3302 40.5627 82.834 40.6059C82.3485 40.649 81.9655 40.7299 81.685 40.8486C81.4045 40.9565 81.2049 41.1075 81.0862 41.3017C80.9783 41.4959 80.9244 41.7333 80.9244 42.0138C80.9244 42.4993 81.0916 42.8931 81.4261 43.1951C81.7605 43.4972 82.2136 43.6483 82.7854 43.6483C83.2493 43.6483 83.6539 43.5404 83.9991 43.3246C84.3552 43.098 84.6357 42.7906 84.8407 42.4022C85.0456 42.0138 85.1481 41.5715 85.1481 41.0752V39.2303C85.1481 38.5075 85.0025 37.9842 84.7112 37.6606C84.4199 37.3261 83.956 37.1589 83.3195 37.1589C82.8448 37.1589 82.3862 37.229 81.9439 37.3693C81.5124 37.5095 81.0646 37.7307 80.6007 38.0328L80.2123 37.2722C80.4928 37.078 80.8003 36.9108 81.1348 36.7705C81.48 36.6303 81.836 36.5224 82.2028 36.4468C82.5804 36.3605 82.9473 36.3174 83.3033 36.3174C83.9398 36.3174 84.4631 36.4253 84.873 36.641C85.2938 36.8568 85.6013 37.1805 85.7955 37.612C86.0004 38.0436 86.1029 38.5992 86.1029 39.2789V44.3118H85.1643V42.4184H85.3261C85.229 42.8391 85.0564 43.2005 84.8083 43.5026C84.5602 43.8047 84.2527 44.0367 83.8859 44.1985C83.5191 44.3603 83.1091 44.4412 82.656 44.4412Z" fill="black"/>
<path d="M73.2422 34.3916V33.1455H74.5692V34.3916H73.2422ZM73.404 44.3118V36.463H74.3912V44.3118H73.404Z" fill="black"/>
<path d="M56.498 44.3118V36.463H57.469V38.2917H57.291C57.4205 37.8709 57.6093 37.5149 57.8574 37.2236C58.1163 36.9323 58.4238 36.7112 58.7798 36.5601C59.1359 36.3983 59.5243 36.3174 59.945 36.3174C60.6355 36.3174 61.1857 36.4846 61.5957 36.8191C62.0164 37.1535 62.2915 37.6552 62.421 38.3241H62.1783C62.3617 37.7199 62.7015 37.2344 63.1978 36.8676C63.7049 36.5008 64.2982 36.3174 64.9779 36.3174C65.5605 36.3174 66.0406 36.4307 66.4182 36.6572C66.8066 36.8838 67.0979 37.2236 67.2921 37.6768C67.4863 38.1191 67.5834 38.6801 67.5834 39.3598V44.3118H66.5962V39.4407C66.5962 38.6531 66.456 38.0813 66.1755 37.7253C65.9057 37.3585 65.4472 37.1751 64.7999 37.1751C64.3468 37.1751 63.9476 37.283 63.6024 37.4987C63.2571 37.7145 62.9928 38.022 62.8094 38.4212C62.626 38.8203 62.5343 39.295 62.5343 39.8453V44.3118H61.5471V39.4407C61.5471 38.6531 61.4069 38.0813 61.1264 37.7253C60.8567 37.3585 60.4035 37.1751 59.767 37.1751C59.3031 37.1751 58.8985 37.283 58.5533 37.4987C58.2188 37.7145 57.9545 38.022 57.7603 38.4212C57.5769 38.8203 57.4852 39.295 57.4852 39.8453V44.3118H56.498Z" fill="black"/>
</svg>
