<?xml version="1.0" encoding="UTF-8" standalone="no"?><svg width="176" height="67" viewBox="0 0 176 67" fill="none" xmlns="http://www.w3.org/2000/svg">
<g clip-path="url(#clip0_1_70)">
<path d="M0 67H176V0H0V67Z" fill="#8C0014"/>
<path d="M140.126 36.9583V38.6691C140.126 40.1071 141.432 41.4279 143.482 41.4279C146.423 41.4279 147.604 39.2184 147.845 38.293C151.024 38.293 153.525 38.2913 154.424 38.2913C153.444 41.3212 149.401 44.9196 141.967 44.9196C132.278 44.9196 129.24 39.703 129.24 35.7162C129.24 31.4636 132.75 26.4027 141.951 26.4027C149.906 26.4027 154.662 30.986 154.662 35.718C154.662 36.5087 154.595 36.9583 154.595 36.9583H140.126ZM140.126 34.0824H143.811V31.7365C143.811 31.028 143.243 29.9067 141.956 29.9067C140.763 29.9067 140.126 30.9808 140.126 31.726V34.0824ZM113.129 40.429H110.51V44.0991H128.207V40.429H125.553V21.767H110.51V25.4388H113.129V40.429ZM94.8975 36.9583V38.6691C94.8975 40.1071 96.2069 41.4279 98.2573 41.4279C101.196 41.4279 102.379 39.2184 102.619 38.293C105.799 38.293 108.3 38.2913 109.199 38.2913C108.219 41.3212 104.174 44.9196 96.7419 44.9196C87.0514 44.9196 84.0154 39.703 84.0154 35.7162C84.0154 31.4636 87.5213 26.4027 96.7279 26.4027C104.68 26.4027 109.439 30.986 109.439 35.718C109.439 36.5087 109.37 36.9583 109.37 36.9583H94.8975ZM94.8975 34.0824H98.5847V31.7365C98.5847 31.028 98.0162 29.9067 96.7296 29.9067C95.5381 29.9067 94.8975 30.9808 94.8975 31.726V34.0824ZM78.2056 24.0708L76.4931 20.8311L71.0864 23.602L72.7989 26.8733L78.2056 24.0708ZM80.3546 27.3089H65.817V30.9808H68.4675V40.429H65.817V44.0991H83.0069V40.429H80.3546V27.3089ZM50.2023 21.767H63.4322V25.4406H60.7799V40.429H63.4322V44.0991H46.237V40.429H48.8911V30.7149L39.1213 44.0991L29.3146 30.7149V40.429H31.9687V44.0991H22.4629V40.429H25.0835V25.4406H22.4629V21.767H37.4739L43.8539 30.4805L50.2023 21.767Z" fill="white"/>
</g>
<defs>
<clipPath id="clip0_1_70">
<rect width="176" height="67" fill="white"/>
</clipPath>
</defs>
</svg>
