<?xml version="1.0" encoding="UTF-8" standalone="no"?><svg width="151" height="27" viewBox="0 0 151 27" fill="none" xmlns="http://www.w3.org/2000/svg">
<path d="M120.807 25.804H111.466C111.35 25.804 111.201 25.842 111.083 25.766C110.892 25.6891 110.775 25.5741 110.701 25.3832C110.623 25.2672 110.663 25.1153 110.663 25.0003V7.50229C110.663 7.38943 110.623 7.23651 110.701 7.12048C110.775 6.96965 110.892 6.81354 111.044 6.73866C111.201 6.70068 111.311 6.70068 111.466 6.70068H120.807C120.961 6.70068 121.114 6.70068 121.268 6.73866C121.421 6.81354 121.532 6.92852 121.573 7.08145C121.65 7.23651 121.65 7.34829 121.65 7.50229V25.0003C121.65 25.1532 121.65 25.2672 121.61 25.4222C121.532 25.5741 121.383 25.6891 121.227 25.766C121.114 25.842 120.961 25.804 120.807 25.804Z" fill="#BD0027"/>
<path d="M120.617 0.300293L111.972 0.304509H111.583C111.467 0.304509 111.312 0.30451 111.201 0.382564C111.045 0.458497 110.892 0.573476 110.815 0.727451C110.776 0.880402 110.776 1.03228 110.776 1.14725V4.40109C110.776 4.55615 110.776 4.6711 110.815 4.82193C110.892 4.97593 111.008 5.12992 111.201 5.16894C111.312 5.20587 111.467 5.24594 111.583 5.24594H120.692C120.808 5.24594 120.999 5.20587 121.115 5.16894C121.269 5.09089 121.422 4.97593 121.498 4.82193C121.533 4.6711 121.533 4.55615 121.533 4.40109V1.14725C121.533 1.03228 121.533 0.880402 121.498 0.727451C121.422 0.573476 121.269 0.458497 121.074 0.382564C120.962 0.30451 120.901 0.337218 120.784 0.300293L120.692 0.304509L120.617 0.300293Z" fill="#BD0027"/>
<path d="M16.5563 16.3703C16.5563 15.9104 16.5109 15.6204 16.3569 15.1995C15.9751 14.1648 14.9025 13.8579 13.8699 13.8579C12.7972 13.8579 11.6497 14.2397 11.1909 15.3135C11.0759 15.6974 11.0558 15.9336 11.0168 16.3524C11.0168 16.5074 11.0168 16.6614 11.0168 16.8143V24.8556C11.0168 25.0075 11.0168 25.1214 10.9409 25.2733C10.9029 25.4663 10.711 25.6193 10.519 25.6572C10.4051 25.6941 10.2901 25.6572 10.1762 25.6572H0.833381C0.719463 25.6572 0.566522 25.6941 0.449447 25.6193C0.259608 25.5423 0.105605 25.3904 0.0286107 25.1974C-0.00934971 25.0834 0.0286107 24.9674 0.0286107 24.8556V16.3524L0.0033176 7.67613L0.0096279 7.50211C0.0096279 7.38925 -0.0283493 7.23631 0.0465475 7.12028C0.12459 6.92833 0.277535 6.77539 0.470556 6.73847C0.584462 6.7005 0.697305 6.7005 0.815453 6.7005H10.0802C10.2321 6.7005 10.3481 6.7005 10.5 6.73847C10.654 6.81442 10.885 7.00744 10.885 7.19729C10.9208 7.31331 10.9208 7.42617 10.9208 7.50211V9.38059C11.1909 8.53785 12.3753 7.92399 13.0672 7.50211C14.5976 6.62244 16.436 6.47058 18.1574 6.39463C19.6509 6.35455 21.1433 6.43365 22.5588 6.81441C25.2019 7.46412 26.8884 9.60945 27.3093 12.2136C27.4612 13.2103 27.5371 14.2049 27.5371 15.1995V16.499V25.0001C27.5371 25.1531 27.5371 25.2691 27.4991 25.422C27.4221 25.6119 27.2323 25.7669 27.0393 25.8038C26.9644 25.8439 26.8484 25.8038 26.7334 25.8038H17.3927C17.2756 25.8038 17.1227 25.8439 17.0088 25.8038C16.8189 25.6889 16.627 25.5739 16.5869 25.344C16.55 25.229 16.55 25.1151 16.55 25.0001V16.9599C16.55 16.808 16.55 16.654 16.55 16.499L16.5563 16.3703Z" fill="#BD0027"/>
<path d="M97.907 1.1484V25.0001C97.907 25.1151 97.907 25.3071 97.946 25.383C98.0219 25.6119 98.2128 25.6889 98.3658 25.8038C98.4818 25.8439 98.6326 25.8038 98.7497 25.8038H108.052C108.166 25.8038 108.321 25.8439 108.435 25.7669C108.626 25.6889 108.779 25.5739 108.856 25.383C108.897 25.3071 108.897 25.1151 108.897 25.0001V1.1484C108.897 1.03448 108.897 0.842536 108.819 0.727557C108.779 0.575678 108.589 0.458603 108.435 0.38267C108.321 0.305664 108.166 0.343637 108.052 0.305664H98.7497C98.6326 0.305664 98.4818 0.305664 98.4038 0.343637C98.1749 0.458603 98.0219 0.575678 97.946 0.764482C97.907 0.880484 97.907 1.03448 97.907 1.1484Z" fill="#BD0027"/>
<path d="M95.3419 25.804H86.0002C85.8852 25.804 85.7323 25.8441 85.6163 25.7671C85.4264 25.6891 85.3104 25.5741 85.2323 25.3832C85.1574 25.2693 85.1954 25.1153 85.1954 25.0003V7.50229C85.1954 7.38943 85.1574 7.23651 85.2323 7.12048C85.3104 6.96965 85.4264 6.81461 85.5762 6.73866C85.7323 6.70068 85.8462 6.70068 86.0002 6.70068H95.3419C95.4938 6.70068 95.6478 6.70068 95.8008 6.73866C95.9537 6.81461 96.0697 6.92852 96.1066 7.08145C96.1847 7.23651 96.1847 7.35041 96.1847 7.50229V25.0003C96.1847 25.1532 96.1847 25.2693 96.1446 25.4222C96.0697 25.5741 95.9147 25.6891 95.7628 25.7671C95.6478 25.8441 95.4938 25.804 95.3419 25.804Z" fill="#BD0027"/>
<path d="M95.0509 0.315717L86.5044 0.305176H86.1142C85.9981 0.305176 85.8452 0.305176 85.7302 0.38323C85.5742 0.458103 85.4254 0.576238 85.3453 0.728117C85.3084 0.879996 85.3083 1.03398 85.3083 1.14896V4.4028C85.3083 4.5568 85.3084 4.67071 85.3453 4.82259C85.4254 4.97553 85.5383 5.12952 85.7302 5.16854C85.8452 5.20651 85.9981 5.24659 86.1142 5.24659H95.2229C95.3399 5.24659 95.5319 5.20651 95.6469 5.16854C95.7987 5.0926 95.9517 4.97553 96.0297 4.82259C96.0677 4.67071 96.0677 4.5568 96.0677 4.4028V1.14896C96.0677 1.03398 96.0677 0.879996 96.0297 0.728117C95.9517 0.576238 95.7987 0.458103 95.6078 0.38323C95.4654 0.315717 95.4907 0.370568 95.3768 0.332595L95.2102 0.32415L95.0509 0.315717Z" fill="#BD0027"/>
<path d="M139.141 19.1805C138.915 19.4495 138.643 19.7184 138.336 19.9473C137.916 20.2141 137.418 20.3702 136.922 20.4462C136.272 20.5232 135.543 20.4462 134.93 20.1772C134.128 19.8323 133.553 19.1046 133.281 18.3008C133.016 17.5351 132.977 16.6934 133.055 15.8897C133.132 14.8941 133.512 13.8973 134.354 13.3236C135.045 12.8257 135.887 12.7878 136.732 12.7878C137.304 12.8257 137.876 12.9396 138.336 13.2487C138.643 13.4016 138.874 13.6294 139.104 13.8973C139.676 14.6631 139.835 15.6587 139.835 16.5394C139.835 17.4571 139.676 18.4137 139.141 19.1805ZM150.282 6.89179C150.166 6.77578 149.977 6.70089 149.824 6.70089C149.745 6.70089 149.71 6.70089 149.632 6.70089H140.406C140.326 6.70089 140.288 6.70089 140.213 6.70089C140.059 6.70089 139.869 6.77578 139.753 6.89179C139.64 7.00676 139.56 7.1597 139.56 7.3506C139.56 7.42655 139.56 7.46451 139.56 7.50248V8.96013C139.408 8.88313 139.292 8.7302 139.22 8.61313C138.95 8.34627 138.643 8.11741 138.336 7.92438C137.682 7.51302 136.959 7.12067 136.194 6.89179C134.891 6.50893 133.512 6.39502 132.172 6.39502C130.527 6.39502 128.881 6.58487 127.312 7.19768C124.859 8.19228 123.292 10.4895 122.833 13.0567C122.564 14.4722 122.485 15.9646 122.564 17.3811C122.717 20.2532 123.674 23.1252 126.241 24.7316C127.96 25.8042 129.991 26.0732 131.983 26.0732C133.132 26.1122 134.279 26.0732 135.427 25.8823C136.458 25.7293 137.457 25.3443 138.336 24.7716C138.569 24.6176 138.722 24.5027 138.915 24.3497C139.141 24.1588 139.37 23.93 139.56 23.738V25.0005C139.56 25.0395 139.56 25.1144 139.56 25.1534C139.56 25.3443 139.64 25.4983 139.753 25.6122C139.907 25.7673 140.059 25.8042 140.213 25.8042C140.288 25.8042 140.326 25.8042 140.406 25.8042H149.632C149.71 25.8042 149.745 25.8042 149.824 25.8042C149.977 25.8042 150.166 25.7673 150.282 25.6122C150.399 25.4983 150.475 25.3443 150.475 25.1534C150.475 25.1144 150.475 25.0395 150.475 25.0005V7.50248C150.475 7.46451 150.475 7.38962 150.475 7.3506C150.475 7.1597 150.399 7.00676 150.282 6.89179Z" fill="#BD0027"/>
<path d="M45.4186 16.7306C45.3796 17.7252 45.1876 18.7219 44.4989 19.4866C43.807 20.2133 42.8514 20.4464 41.8958 20.4464C41.1301 20.4464 40.2863 20.2914 39.6355 19.8315C38.7179 19.0647 38.45 17.8402 38.373 16.6926C38.373 16.6156 38.373 16.5777 38.373 16.4986C38.373 15.505 38.565 14.2804 39.2927 13.4767C39.9815 12.7869 40.9761 12.595 41.8958 12.595C42.5835 12.595 43.3503 12.711 43.962 13.0559C45.1497 13.7826 45.4556 15.1991 45.4186 16.4986V16.7306ZM55.485 15.736C55.3342 12.4811 54.1845 9.38016 51.1205 7.73372C48.3265 6.24128 44.9978 6.04932 41.8958 6.04932C39.9815 6.04932 37.9912 6.12525 36.1148 6.54609C33.1289 7.15889 30.4857 8.65134 29.1842 11.5244C28.5344 12.9768 28.3815 14.5484 28.3035 16.0798C28.3035 16.2338 28.3119 16.2644 28.3119 16.4173L28.3035 16.4986C28.3425 18.492 28.8013 20.5224 29.9488 22.1677C32.168 25.4596 36.1897 26.2643 39.9815 26.4173C41.5108 26.4531 43.0044 26.4531 44.5379 26.3782C48.6704 26.1483 52.845 24.8088 54.6444 20.7881C55.2192 19.4497 55.485 17.9572 55.5261 16.4986C55.5261 16.2338 55.5261 15.9638 55.485 15.736Z" fill="#BD0027"/>
<path d="M73.6734 17.9572C73.5194 18.492 73.2905 19.0278 72.9056 19.4497C72.2949 20.1764 71.3393 20.4464 70.4174 20.4464C69.4998 20.4464 68.578 20.1764 67.9293 19.4497C67.2026 18.6839 67.0107 17.5733 67.0107 16.5386L67.018 16.3024C67.018 15.2687 67.2881 14.1591 68.0527 13.3913C68.7035 12.7806 69.5452 12.6266 70.4259 12.5876C71.2697 12.5876 72.1883 12.7806 72.799 13.3913C73.2241 13.7742 73.5279 14.311 73.6808 14.9228C73.7958 15.3847 73.8253 16.0418 73.8253 16.5386C73.8253 17.0375 73.7873 17.4984 73.6734 17.9572ZM83.9739 13.0569C83.5109 10.4887 81.9404 8.19252 79.4903 7.19791C77.9609 6.54713 75.7818 6.19907 74.1734 6.19907L73.6808 6.19486C72.3413 6.27184 70.9627 6.50072 69.7371 7.03652C68.8185 7.45736 68.0158 8.03325 67.2881 8.7589V0.94966C67.2881 0.910639 67.2881 0.872666 67.2881 0.796732C67.249 0.60476 67.2121 0.450773 67.095 0.336867C66.9432 0.182867 66.7892 0.182867 66.6373 0.143834C66.5603 0.143834 66.5213 0.106934 66.4844 0.106934H57.1405C57.1014 0.106934 57.0645 0.143834 56.9897 0.143834C56.7966 0.143834 56.6827 0.182867 56.5287 0.336867C56.3758 0.450773 56.3399 0.60476 56.3399 0.796732C56.2988 0.833633 56.3399 0.910639 56.3399 0.94966L56.3442 16.142L56.3368 16.4184V16.584L56.3294 25.0007C56.3294 25.0398 56.2914 25.1147 56.3294 25.1537C56.3294 25.3435 56.3674 25.4986 56.5213 25.6125C56.6732 25.7675 56.7882 25.8034 56.9812 25.8034C57.0571 25.8034 57.0941 25.8034 57.132 25.8034H66.3599C66.4369 25.8034 66.4738 25.8034 66.5529 25.8034C66.7048 25.8034 66.8577 25.7675 67.0107 25.6125C67.1246 25.4986 67.2026 25.3435 67.2026 25.1537C67.2026 25.1147 67.2026 25.0398 67.2026 25.0007V23.7372C67.5085 24.158 68.0063 24.4649 68.4251 24.7307C69.8437 25.6895 71.4131 25.9584 73.0975 26.0724C73.2906 26.0724 73.4804 26.0724 73.6734 26.0724C74.2082 26.0724 74.744 26.1114 75.2787 26.0724C77.5401 25.9584 79.6833 25.4986 81.4436 23.9671C83.397 22.2827 84.0868 19.7566 84.2397 17.2685C84.3178 15.89 84.2397 14.4344 83.9739 13.0569Z" fill="#BD0027"/>
<path d="M147.98 4.78533C146.565 4.78533 145.839 3.6747 145.839 2.52714C145.839 2.33519 145.877 2.14428 145.915 1.91435C146.144 1.07162 146.831 0.343839 147.98 0.343839C149.207 0.343839 149.897 1.07162 150.126 1.91435C150.163 2.14428 150.205 2.33519 150.205 2.52714C150.205 3.6747 149.476 4.78533 147.98 4.78533ZM150.472 1.91435C150.242 0.917624 149.4 0 147.98 0C146.605 0 145.798 0.917624 145.569 1.91435C145.533 2.14428 145.533 2.33519 145.533 2.52714C145.533 3.82869 146.337 5.09332 147.98 5.12917C149.707 5.12917 150.547 3.82869 150.547 2.52714C150.547 2.33519 150.51 2.14428 150.472 1.91435Z" fill="black"/>
<path d="M148.136 2.41389H147.526V1.915V1.49311H148.136C148.446 1.49311 148.712 1.5701 148.674 1.915C148.674 2.21981 148.404 2.41389 148.136 2.41389ZM148.595 2.75668C148.712 2.67968 148.828 2.60268 148.903 2.52675C149.055 2.37381 149.172 2.18396 149.172 1.915C149.172 1.37814 148.674 1.07227 148.136 1.07227H147.028V1.38235V3.05727V3.98122H147.526V2.83474H148.061L148.712 3.98122H149.287L148.595 2.75668Z" fill="black"/>
</svg>
