<?xml version="1.0" encoding="UTF-8" standalone="no"?><svg width="122" height="122" viewBox="0 0 122 122" fill="none" xmlns="http://www.w3.org/2000/svg">
<circle cx="61" cy="61" r="61" fill="#C80128"/>
<path d="M73.6277 80.1309H43.4628C42.6549 80.1309 42 79.4761 42 78.6681V54.7749C42 53.967 42.6549 53.3121 43.4628 53.3121H50.2105C51.9233 53.3121 53.5106 52.4134 54.3918 50.9447L60.9999 39.9309C62.426 37.5545 65.7844 37.3286 67.5157 39.4927C68.3317 40.5128 68.5948 41.8686 68.2193 43.1198L65.7267 51.4289C65.4451 52.3675 66.148 53.3121 67.1278 53.3121H78.2823C81.4974 53.3121 83.8326 56.3694 82.9865 59.4711L78.332 76.5377C77.7534 78.6593 75.8266 80.1309 73.6277 80.1309Z" stroke="white" stroke-width="3" stroke-linecap="round"/>
<path d="M50.5332 80.131V53.3121" stroke="white" stroke-width="3" stroke-linecap="round" stroke-linejoin="round"/>
</svg>
